<svg width="133" height="127" viewBox="0 0 133 127" fill="none" xmlns="http://www.w3.org/2000/svg">
<g id="Group 1000003317">
<path id="Star 1" d="M11.5 0L14.0819 7.9463H22.4371L15.6776 12.8574L18.2595 20.8037L11.5 15.8926L4.74047 20.8037L7.32238 12.8574L0.56285 7.9463H8.91809L11.5 0Z" fill="#FFB800"/>
<path id="Star 6" d="M11.5 27L14.0819 34.9463H22.4371L15.6776 39.8574L18.2595 47.8037L11.5 42.8926L4.74047 47.8037L7.32238 39.8574L0.56285 34.9463H8.91809L11.5 27Z" fill="#FFB800"/>
<path id="Star 11" d="M12 53L14.6942 60.9463H23.4127L16.3593 65.8574L19.0534 73.8037L12 68.8926L4.94658 73.8037L7.64074 65.8574L0.587322 60.9463H9.30583L12 53Z" fill="#FFB800"/>
<path id="Star 17" d="M12 79L14.6942 86.9463H23.4127L16.3593 91.8574L19.0534 99.8037L12 94.8926L4.94658 99.8037L7.64074 91.8574L0.587322 86.9463H9.30583L12 79Z" fill="#FFB800"/>
<path id="Star 23" d="M12 104L14.6942 111.946H23.4127L16.3593 116.857L19.0534 124.804L12 119.893L4.94658 124.804L7.64074 116.857L0.587322 111.946H9.30583L12 104Z" fill="#FFB800"/>
<path id="Star 2" d="M38.5 0L41.0819 7.9463H49.4371L42.6776 12.8574L45.2595 20.8037L38.5 15.8926L31.7405 20.8037L34.3224 12.8574L27.5628 7.9463H35.9181L38.5 0Z" fill="#FFB800"/>
<path id="Star 7" d="M38.5 27L41.0819 34.9463H49.4371L42.6776 39.8574L45.2595 47.8037L38.5 42.8926L31.7405 47.8037L34.3224 39.8574L27.5628 34.9463H35.9181L38.5 27Z" fill="#FFB800"/>
<path id="Star 12" d="M39 53L41.6942 60.9463H50.4127L43.3593 65.8574L46.0534 73.8037L39 68.8926L31.9466 73.8037L34.6407 65.8574L27.5873 60.9463H36.3058L39 53Z" fill="#FFB800"/>
<path id="Star 18" d="M39 79L41.6942 86.9463H50.4127L43.3593 91.8574L46.0534 99.8037L39 94.8926L31.9466 99.8037L34.6407 91.8574L27.5873 86.9463H36.3058L39 79Z" fill="#FFB800"/>
<path id="Star 3" d="M66 0L68.6942 7.9463H77.4127L70.3593 12.8574L73.0534 20.8037L66 15.8926L58.9466 20.8037L61.6407 12.8574L54.5873 7.9463H63.3058L66 0Z" fill="#FFB800"/>
<path id="Star 8" d="M66 27L68.6942 34.9463H77.4127L70.3593 39.8574L73.0534 47.8037L66 42.8926L58.9466 47.8037L61.6407 39.8574L54.5873 34.9463H63.3058L66 27Z" fill="#FFB800"/>
<path id="Star 13" d="M66.5 53L69.3064 60.9463H78.3882L71.0409 65.8574L73.8473 73.8037L66.5 68.8926L59.1527 73.8037L61.9591 65.8574L54.6118 60.9463H63.6936L66.5 53Z" fill="#FFB800"/>
<path id="Star 4" d="M93.5 0L95.8574 7.9463H103.486L97.3143 12.8574L99.6717 20.8037L93.5 15.8926L87.3283 20.8037L89.6857 12.8574L83.5139 7.9463H91.1426L93.5 0Z" fill="#FFB800"/>
<path id="Star 9" d="M93.5 27L95.8574 34.9463H103.486L97.3143 39.8574L99.6717 47.8037L93.5 42.8926L87.3283 47.8037L89.6857 39.8574L83.5139 34.9463H91.1426L93.5 27Z" fill="#FFB800"/>
<path id="Star 5" d="M120 0L122.694 7.9463H131.413L124.359 12.8574L127.053 20.8037L120 15.8926L112.947 20.8037L115.641 12.8574L108.587 7.9463H117.306L120 0Z" fill="#FFB800"/>
<path id="Star 10" d="M120 28.5572L122.221 35.1069L122.336 35.4463H122.694H129.82L124.074 39.4471L123.765 39.6619L123.886 40.0179L126.092 46.525L120.286 42.4823L120 42.2833L119.714 42.4823L113.908 46.525L116.114 40.0179L116.235 39.6619L115.926 39.4471L110.18 35.4463H117.306H117.664L117.779 35.1069L120 28.5572Z" stroke="#FFB800"/>
<path id="Star 15" d="M120.5 54.5014L122.835 61.1128L122.953 61.4463H123.306H130.74L124.763 65.4417L124.44 65.6576L124.569 66.0239L126.875 72.5525L120.778 68.4769L120.5 68.2912L120.222 68.4769L114.125 72.5525L116.431 66.0239L116.56 65.6576L116.237 65.4417L110.26 61.4463H117.694H118.047L118.165 61.1128L120.5 54.5014Z" stroke="#FFB800"/>
<path id="Star 20" d="M120.5 80.5014L122.835 87.1128L122.953 87.4463H123.306H130.74L124.763 91.4417L124.44 91.6576L124.569 92.0239L126.875 98.5525L120.778 94.4769L120.5 94.2912L120.222 94.4769L114.125 98.5525L116.431 92.0239L116.56 91.6576L116.237 91.4417L110.26 87.4463H117.694H118.047L118.165 87.1128L120.5 80.5014Z" stroke="#FFB800"/>
<path id="Star 25" d="M120.5 105.501L122.835 112.113L122.953 112.446H123.306H130.74L124.763 116.442L124.44 116.658L124.569 117.024L126.875 123.552L120.778 119.477L120.5 119.291L120.222 119.477L114.125 123.552L116.431 117.024L116.56 116.658L116.237 116.442L110.26 112.446H117.694H118.047L118.165 112.113L120.5 105.501Z" stroke="#FFB800"/>
<path id="Star 16" d="M92.5 54.618L94.6064 61.1008L94.7186 61.4463H95.0819H101.898L96.3837 65.4529L96.0898 65.6664L96.2021 66.0119L98.3085 72.4947L92.7939 68.4881L92.5 68.2746L92.2061 68.4881L86.6915 72.4947L88.7979 66.0119L88.9102 65.6664L88.6163 65.4529L83.1017 61.4463H89.9181H90.2814L90.3936 61.1008L92.5 54.618Z" stroke="#FFB800"/>
<path id="Star 21" d="M92.5 80.618L94.6064 87.1008L94.7186 87.4463H95.0819H101.898L96.3837 91.4529L96.0898 91.6664L96.2021 92.0119L98.3085 98.4947L92.7939 94.4881L92.5 94.2746L92.2061 94.4881L86.6915 98.4947L88.7979 92.0119L88.9102 91.6664L88.6163 91.4529L83.1017 87.4463H89.9181H90.2814L90.3936 87.1008L92.5 80.618Z" stroke="#FFB800"/>
<path id="Star 26" d="M92.5 105.618L94.6064 112.101L94.7186 112.446H95.0819H101.898L96.3837 116.453L96.0898 116.666L96.2021 117.012L98.3085 123.495L92.7939 119.488L92.5 119.275L92.2061 119.488L86.6915 123.495L88.7979 117.012L88.9102 116.666L88.6163 116.453L83.1017 112.446H89.9181H90.2814L90.3936 112.101L92.5 105.618Z" stroke="#FFB800"/>
<path id="Star 22" d="M63.5 80.5014L65.835 87.1128L65.9527 87.4463H66.3064H73.7404L67.763 91.4417L67.4401 91.6576L67.5694 92.0239L69.8751 98.5525L63.7779 94.4769L63.5 94.2912L63.2221 94.4769L57.1249 98.5525L59.4306 92.0239L59.5599 91.6576L59.237 91.4417L53.2596 87.4463H60.6936H61.0473L61.165 87.1128L63.5 80.5014Z" stroke="#FFB800"/>
<path id="Star 27" d="M63.5 105.501L65.835 112.113L65.9527 112.446H66.3064H73.7404L67.763 116.442L67.4401 116.658L67.5694 117.024L69.8751 123.552L63.7779 119.477L63.5 119.291L63.2221 119.477L57.1249 123.552L59.4306 117.024L59.5599 116.658L59.237 116.442L53.2596 112.446H60.6936H61.0473L61.165 112.113L63.5 105.501Z" stroke="#FFB800"/>
<path id="Star 28" d="M37.5 105.618L39.6064 112.101L39.7186 112.446H40.0819H46.8983L41.3837 116.453L41.0898 116.666L41.2021 117.012L43.3085 123.495L37.7939 119.488L37.5 119.275L37.2061 119.488L31.6915 123.495L33.7979 117.012L33.9102 116.666L33.6163 116.453L28.1017 112.446H34.9181H35.2814L35.3936 112.101L37.5 105.618Z" stroke="#FFB800"/>
</g>
</svg>
