<?xml version="1.0" standalone="no"?>
<!DOCTYPE svg PUBLIC "-//W3C//DTD SVG 20010904//EN"
 "http://www.w3.org/TR/2001/REC-SVG-20010904/DTD/svg10.dtd">
<svg version="1.0" xmlns="http://www.w3.org/2000/svg"
 width="811.000000pt" height="613.000000pt" viewBox="0 0 811.000000 613.000000"
 preserveAspectRatio="xMidYMid meet">

<g transform="translate(0.000000,613.000000) scale(0.100000,-0.100000)"
fill="#000000" stroke="none">
<path d="M3890 5480 c-55 -30 -158 -60 -208 -60 -61 0 -124 -32 -157 -80 -20
-29 -35 -40 -54 -40 -38 0 -94 -31 -108 -60 -17 -34 -16 -85 2 -165 15 -61 14
-74 0 -147 -18 -85 -12 -122 23 -150 14 -11 15 -10 7 7 -45 108 33 169 113 89
45 -45 66 -37 68 27 1 24 5 43 10 43 5 -1 24 -4 42 -7 17 -4 32 -2 32 3 0 5
-20 12 -45 16 -42 6 -45 9 -56 47 -9 35 -8 43 11 69 12 16 24 45 27 64 8 50
28 57 118 38 64 -13 85 -14 121 -4 25 7 47 17 50 21 9 16 60 9 77 -9 9 -10 20
-33 23 -51 7 -31 6 -32 -22 -24 -43 11 -107 10 -111 -3 -11 -32 87 -65 127
-44 18 10 20 7 20 -25 0 -59 24 -37 28 24 2 40 -2 61 -18 89 l-22 36 26 19
c75 54 79 200 7 275 -27 28 -82 29 -131 2z"/>
<path d="M3667 5079 c-72 -38 -24 -79 51 -43 39 18 52 31 52 52 0 19 -60 14
-103 -9z"/>
<path d="M3820 5048 c0 -7 9 -28 20 -45 11 -18 17 -39 14 -47 -3 -8 3 -16 15
-19 29 -7 26 -25 -4 -33 -28 -7 -34 -24 -9 -24 32 0 54 20 54 50 0 17 -4 30
-9 30 -5 0 -23 23 -41 50 -33 52 -40 58 -40 38z"/>
<path d="M3916 5005 c-6 -17 2 -45 14 -45 4 0 13 7 20 15 10 12 10 18 0 30 -7
8 -16 15 -20 15 -4 0 -10 -7 -14 -15z"/>
<path d="M3730 4985 c0 -9 6 -12 15 -9 8 4 12 10 9 15 -8 14 -24 10 -24 -6z"/>
<path d="M3420 4860 c0 -5 9 -14 21 -20 20 -11 20 -12 2 -32 -18 -21 -18 -21
2 -14 35 13 38 12 52 -17 19 -36 35 -25 21 14 -13 39 -98 99 -98 69z"/>
<path d="M3760 4847 c0 -21 78 -52 128 -51 30 1 50 7 65 22 25 26 13 28 -32 6
-36 -18 -79 -12 -128 18 -26 15 -33 17 -33 5z"/>
<path d="M5058 4760 c-76 -16 -143 -30 -150 -32 -9 -3 -12 -69 -12 -254 -1
-137 -5 -257 -10 -266 -7 -15 -23 -18 -106 -18 -114 0 -235 19 -351 56 -66 21
-89 34 -117 64 -54 61 -162 94 -162 50 0 -29 -62 -85 -115 -103 -62 -22 -54
-4 15 30 38 20 61 39 74 64 l20 36 -33 52 c-19 28 -57 72 -87 97 -46 39 -55
44 -74 34 -57 -30 -218 -21 -292 17 -16 7 -28 9 -28 4 0 -18 96 -91 162 -123
37 -18 68 -36 68 -39 0 -4 -19 -14 -43 -23 -54 -20 -157 -21 -225 -1 -58 18
-57 14 -71 170 -7 86 -7 91 16 118 31 39 29 51 -7 32 -41 -21 -64 -19 -97 9
l-28 24 -16 -27 c-10 -17 -32 -32 -58 -40 -99 -29 -206 -113 -235 -183 -74
-176 143 -358 379 -320 33 6 62 8 65 5 10 -10 -27 -22 -91 -28 -109 -11 -227
28 -309 101 -36 33 -43 35 -81 29 -46 -8 -114 -67 -125 -108 -3 -14 -18 -31
-32 -38 -43 -22 -163 -99 -212 -136 -200 -150 -422 -460 -437 -609 -13 -120
58 -247 197 -356 99 -77 304 -183 478 -247 l83 -31 16 37 c8 21 28 72 43 113
42 111 42 112 49 102 3 -5 41 -11 84 -14 l79 -3 -5 25 c-2 14 -20 111 -40 215
-39 208 -87 517 -87 559 0 14 3 26 8 26 4 0 18 -78 30 -172 35 -253 103 -622
123 -660 6 -10 15 -18 22 -18 7 0 37 -13 67 -29 86 -44 69 -68 -33 -47 -62 12
-36 -8 55 -42 46 -18 99 -42 118 -54 l35 -23 -37 -3 c-21 -2 -53 1 -73 7 -52
14 -33 -4 35 -35 61 -27 88 -49 76 -61 -6 -6 -100 9 -144 23 -9 4 4 -8 30 -26
27 -18 48 -36 48 -41 0 -12 -43 -11 -76 1 -15 6 -29 8 -32 6 -3 -3 9 -48 25
-101 32 -100 28 -132 -5 -42 -11 28 -23 62 -26 75 -4 12 -12 22 -17 22 -5 0
-46 18 -91 40 -44 22 -84 38 -87 35 -5 -6 30 -153 65 -274 l15 -48 72 38 c112
60 293 112 557 160 58 10 143 28 190 39 121 28 120 28 120 -25 0 -42 2 -45 28
-45 15 0 173 14 352 30 179 17 429 39 555 50 127 11 268 25 315 30 47 6 108
10 135 10 63 0 109 27 123 72 9 28 68 351 143 786 24 144 24 154 -3 179 -42
37 0 37 -488 -7 -124 -12 -236 -25 -250 -31 -38 -14 -46 -35 -69 -160 -53
-290 -138 -730 -142 -734 -4 -4 -301 -35 -335 -35 -19 0 -129 404 -198 725
-16 74 -60 424 -54 430 1 1 55 -11 118 -28 111 -29 123 -31 330 -31 l215 -1
60 28 c159 74 225 220 225 494 0 120 -15 261 -41 396 -9 42 -16 57 -28 56 -9
-1 -78 -14 -153 -29z m-1118 -430 c11 -7 12 -12 4 -20 -9 -9 -3 -33 23 -93 73
-173 165 -433 223 -632 37 -129 38 -130 69 -133 37 -4 42 -22 6 -22 -30 0 -30
-4 -9 -107 9 -43 17 -87 20 -99 3 -17 11 -20 41 -20 l38 1 37 -150 c21 -82 40
-160 43 -171 4 -19 -1 -23 -43 -29 -26 -3 -182 -28 -346 -56 -181 -29 -302
-45 -306 -39 -12 19 -84 330 -78 336 6 5 216 52 310 68 l37 7 -15 47 c-8 26
-26 90 -41 143 l-25 96 -92 27 c-118 36 -307 129 -292 144 3 2 45 -16 94 -41
84 -44 269 -113 278 -104 2 2 -11 66 -30 143 -40 168 -86 371 -116 517 -16 73
-27 107 -36 107 -24 0 -15 30 11 42 31 14 56 -2 37 -24 -7 -10 -1 -55 23 -168
68 -315 139 -618 147 -625 13 -13 168 -30 236 -26 15 1 13 12 -45 201 -89 289
-225 640 -249 640 -20 0 -17 27 4 39 21 13 23 13 42 1z m-912 -691 c33 -102
38 -136 68 -456 4 -40 4 -73 0 -73 -26 0 -350 196 -415 250 l-23 20 26 45 c62
105 273 331 301 322 5 -2 25 -50 43 -108z m2772 -89 c55 -55 -20 -180 -110
-182 -43 -1 -65 23 -64 71 3 93 118 167 174 111z m-265 -325 c31 -31 32 -72 2
-116 -69 -103 -217 -60 -175 50 30 82 123 117 173 66z"/>
<path d="M3960 3441 c0 -16 68 -253 75 -259 2 -3 52 1 110 8 94 12 105 15 105
33 0 30 -41 197 -48 197 -18 0 -176 20 -207 26 -24 4 -35 2 -35 -5z"/>
<path d="M5696 3494 c-8 -21 -8 -24 3 -24 12 0 22 28 12 35 -5 3 -12 -2 -15
-11z"/>
<path d="M5747 3495 c-5 -11 -3 -22 5 -27 10 -6 9 -12 -6 -23 -26 -20 -53 -19
-65 3 -10 16 -10 16 -11 0 0 -23 30 -38 55 -28 34 13 45 33 37 65 -7 25 -9 27
-15 10z"/>
<path d="M1774 1500 c3 -18 6 -36 6 -41 0 -4 14 -3 30 2 17 6 30 14 30 17 0 4
-17 18 -37 31 l-36 23 7 -32z"/>
<path d="M2136 1457 l-30 -13 24 -17 c32 -22 33 -22 53 13 17 29 17 30 0 30
-10 -1 -31 -7 -47 -13z"/>
<path d="M1898 1283 c7 -3 16 -2 19 1 4 3 -2 6 -13 5 -11 0 -14 -3 -6 -6z"/>
<path d="M2078 1283 c6 -2 18 -2 25 0 6 3 1 5 -13 5 -14 0 -19 -2 -12 -5z"/>
<path d="M1977 1262 c-21 -4 -18 -21 6 -36 18 -11 49 0 49 19 -1 12 -32 22
-55 17z"/>
<path d="M6420 921 c-68 -10 -70 -13 -49 -73 10 -29 18 -69 19 -89 l0 -36
-204 -57 c-132 -37 -225 -58 -265 -59 -54 -2 -63 -5 -67 -23 -6 -23 10 -63 30
-76 6 -4 22 -8 36 -8 48 0 771 227 817 257 15 10 23 24 21 37 -2 17 -10 21
-38 21 -19 -1 -45 -4 -58 -9 -17 -6 -23 -3 -28 11 -3 10 -14 36 -24 59 -17 38
-22 42 -66 48 -51 7 -57 6 -124 -3z"/>
<path d="M5536 804 c-3 -9 -6 -22 -6 -29 0 -8 -9 -39 -21 -70 -15 -40 -26 -55
-39 -55 -19 0 -127 25 -325 76 -55 14 -122 39 -149 55 -27 16 -50 28 -51 27
-32 -39 -33 -103 -2 -122 21 -13 155 -47 341 -86 50 -11 154 -33 231 -50 213
-46 264 -53 297 -39 49 20 35 45 -37 65 -31 8 -39 15 -37 30 2 10 6 40 9 65
l5 45 -48 32 c-40 25 -143 72 -158 72 -2 0 -7 -7 -10 -16z"/>
</g>
</svg>
